<?xml version="1.0" standalone="no"?>
<!DOCTYPE svg PUBLIC "-//W3C//DTD SVG 20010904//EN"
 "http://www.w3.org/TR/2001/REC-SVG-20010904/DTD/svg10.dtd">
<svg version="1.0" xmlns="http://www.w3.org/2000/svg"
 width="508.000000pt" height="508.000000pt" viewBox="0 0 508.000000 508.000000"
 preserveAspectRatio="xMidYMid meet">
<metadata>
Created by potrace 1.11, written by Peter Selinger 2001-2013
</metadata>
<g transform="translate(0.000000,508.000000) scale(0.100000,-0.100000)"
fill="#000000" stroke="none">
<path d="M4160 4012 c-22 -7 -120 -104 -120 -119 0 -15 -16 -17 -25 -3 -3 6
-21 10 -39 10 -17 0 -37 5 -42 10 -6 6 -29 12 -52 14 -38 4 -42 3 -42 -18 0
-33 -8 -36 -45 -20 -62 26 -89 19 -149 -39 l-56 -53 0 -116 0 -116 -42 5 c-24
3 -47 9 -52 14 -6 5 -24 9 -40 9 -17 0 -46 9 -63 20 -32 19 -33 22 -33 89 0
76 3 73 -73 86 -35 6 -41 3 -97 -51 -53 -50 -60 -62 -60 -95 0 -40 -13 -57
-33 -41 -7 5 -27 12 -46 16 -32 6 -38 2 -98 -57 l-63 -64 0 -271 c0 -300 4
-285 -65 -256 l-37 15 -63 -63 c-50 -50 -64 -70 -67 -98 -3 -34 -4 -35 -43
-32 -22 2 -44 8 -50 13 -6 6 -35 -16 -77 -58 -60 -60 -68 -72 -68 -105 0 -37
-20 -53 -35 -28 -3 6 -18 10 -33 10 -15 0 -35 7 -45 15 -11 7 -25 11 -32 9 -7
-3 -29 2 -50 10 -21 9 -50 16 -66 16 -15 0 -31 5 -34 10 -15 25 -53 7 -113
-53 -51 -52 -62 -68 -62 -96 0 -33 -1 -34 -37 -28 -21 3 -45 8 -54 11 -11 5
-35 -12 -77 -52 -51 -49 -61 -65 -64 -98 -2 -33 -6 -38 -23 -36 -95 17 -91 18
-155 -44 l-60 -57 0 -275 0 -274 -28 5 c-44 8 -155 37 -187 48 -16 6 -47 15
-67 20 -21 5 -55 13 -75 18 -21 5 -63 17 -93 26 -30 9 -73 19 -95 22 -38 4
-43 1 -97 -52 -46 -45 -57 -63 -60 -93 -3 -40 -8 -42 -83 -27 -27 5 -37 -1
-92 -56 l-63 -61 0 -112 0 -113 42 -12 c24 -7 61 -19 83 -27 23 -8 50 -14 61
-14 44 0 54 -28 54 -147 l0 -111 33 -5 c42 -7 99 -21 167 -42 30 -9 72 -21 93
-26 82 -20 114 -29 167 -44 58 -18 106 -30 155 -40 17 -4 40 -12 53 -18 20
-10 29 -5 87 53 l65 64 0 123 0 123 -39 0 c-22 0 -43 5 -46 10 -3 5 -18 10
-33 11 -35 0 -115 33 -120 48 -2 7 -1 23 2 36 5 21 11 24 39 19 17 -3 41 -9
52 -13 20 -8 79 -25 145 -41 19 -4 78 -20 130 -35 52 -14 113 -31 135 -36 71
-17 109 -28 165 -44 30 -10 66 -19 80 -22 14 -2 34 -8 45 -13 11 -5 34 -11 50
-14 36 -6 113 -26 140 -37 11 -4 31 -10 45 -12 14 -3 52 -13 85 -22 33 -10 71
-19 85 -22 14 -2 34 -8 45 -13 11 -5 31 -11 45 -13 14 -3 52 -13 85 -22 33 -9
71 -18 85 -21 14 -3 34 -9 45 -14 11 -5 31 -11 45 -13 14 -3 52 -12 85 -22
137 -39 120 -41 191 33 l64 67 0 113 c0 68 -4 112 -10 112 -16 0 -24 2 -50 12
-25 10 -71 22 -140 36 -33 7 -35 9 -38 55 -3 41 -1 47 17 47 11 0 22 -4 25 -9
3 -4 20 -11 38 -15 29 -6 37 -1 90 51 47 47 58 63 58 91 0 42 18 49 76 30 l45
-14 3 -140 c2 -76 4 -180 5 -230 1 -101 -2 -96 81 -115 150 -32 150 -33 150
-173 l0 -112 48 -13 c26 -8 65 -19 87 -26 22 -7 65 -18 95 -25 30 -7 72 -19
93 -26 20 -8 48 -14 62 -14 13 0 27 -4 30 -10 3 -5 21 -10 40 -10 19 0 36 -4
39 -9 3 -5 20 -11 38 -14 47 -8 120 -28 142 -39 15 -8 29 1 82 53 l64 63 0
122 0 121 -52 12 c-79 18 -117 28 -178 46 -30 10 -72 20 -93 22 -20 3 -40 9
-43 14 -3 5 -17 9 -32 9 -15 0 -38 7 -50 16 l-22 15 0 506 0 505 28 -5 c15 -3
40 -9 55 -13 26 -6 36 0 93 57 l64 63 0 623 0 623 30 0 c17 0 39 -6 50 -12 18
-11 27 -6 85 52 l65 64 0 238 c0 216 -2 238 -17 238 -9 0 -24 -6 -32 -14 -17
-15 -71 -11 -71 5 0 5 -18 9 -40 9 -26 0 -43 5 -46 14 -4 10 -21 -2 -59 -40
-29 -30 -58 -54 -65 -54 -7 0 -6 5 4 15 8 8 19 15 25 15 6 0 11 5 11 10 0 6
16 26 35 46 19 19 35 36 35 38 0 8 -26 13 -40 8z m180 -88 c0 -4 -17 -24 -39
-45 -26 -26 -48 -39 -65 -39 -16 0 -25 4 -21 10 3 6 17 10 31 10 13 0 24 5 24
10 0 6 7 10 15 10 8 0 15 5 15 10 0 6 6 17 13 25 13 15 27 19 27 9z m-145 -54
c-3 -5 -19 -10 -35 -10 -16 0 -32 5 -35 10 -4 6 10 10 35 10 25 0 39 -4 35
-10z m-1275 -2280 c0 -5 -4 -10 -10 -10 -5 0 -10 5 -10 10 0 6 5 10 10 10 6 0
10 -4 10 -10z m85 -20 c3 -5 -3 -10 -15 -10 -12 0 -18 5 -15 10 3 6 10 10 15
10 5 0 12 -4 15 -10z m82 -26 c-3 -3 -12 -4 -19 -1 -8 3 -5 6 6 6 11 1 17 -2
13 -5z m354 -333 c-8 -5 -20 -7 -28 -4 -21 8 -15 13 15 13 20 0 23 -3 13 -9z
m99 -21 c0 -5 -9 -10 -19 -10 -11 0 -23 5 -26 10 -4 6 5 10 19 10 14 0 26 -4
26 -10z"/>
</g>
</svg>
